<?xml version="1.0" encoding="UTF-8" standalone="no"?>
<!-- Created with Inkscape (http://www.inkscape.org/) -->

<svg
   version="1.1"
   id="svg1"
   width="880"
   height="880"
   viewBox="0 0 880 880"
   sodipodi:docname="playing-cards-deck.svg"
   inkscape:version="1.3.2 (091e20e, 2023-11-25, custom)"
   xmlns:inkscape="http://www.inkscape.org/namespaces/inkscape"
   xmlns:sodipodi="http://sodipodi.sourceforge.net/DTD/sodipodi-0.dtd"
   xmlns="http://www.w3.org/2000/svg"
   xmlns:svg="http://www.w3.org/2000/svg">
  <defs
     id="defs1">
    <clipPath
       clipPathUnits="userSpaceOnUse"
       id="clipPath4">
      <path
         d="M 0,660 H 660 V 0 H 0 Z"
         transform="translate(-163.82811,-264.9307)"
         id="path4" />
    </clipPath>
    <clipPath
       clipPathUnits="userSpaceOnUse"
       id="clipPath6">
      <path
         d="M 0,660 H 660 V 0 H 0 Z"
         transform="translate(-203.92971,-309.89841)"
         id="path6" />
    </clipPath>
    <clipPath
       clipPathUnits="userSpaceOnUse"
       id="clipPath8">
      <path
         d="M 0,660 H 660 V 0 H 0 Z"
         transform="translate(-358.09961,-125.3164)"
         id="path8" />
    </clipPath>
    <clipPath
       clipPathUnits="userSpaceOnUse"
       id="clipPath10">
      <path
         d="M 0,660 H 660 V 0 H 0 Z"
         transform="translate(-140.31741,-320.91021)"
         id="path10" />
    </clipPath>
    <clipPath
       clipPathUnits="userSpaceOnUse"
       id="clipPath12">
      <path
         d="M 0,660 H 660 V 0 H 0 Z"
         transform="translate(-140.31741,-320.91021)"
         id="path12" />
    </clipPath>
    <clipPath
       clipPathUnits="userSpaceOnUse"
       id="clipPath14">
      <path
         d="M 0,660 H 660 V 0 H 0 Z"
         transform="translate(-154.0239,-312.97171)"
         id="path14" />
    </clipPath>
    <clipPath
       clipPathUnits="userSpaceOnUse"
       id="clipPath16">
      <path
         d="M 0,660 H 660 V 0 H 0 Z"
         transform="translate(-154.0239,-312.97171)"
         id="path16" />
    </clipPath>
    <clipPath
       clipPathUnits="userSpaceOnUse"
       id="clipPath18">
      <path
         d="M 0,660 H 660 V 0 H 0 Z"
         transform="translate(-543.51761,-195.2236)"
         id="path18" />
    </clipPath>
    <clipPath
       clipPathUnits="userSpaceOnUse"
       id="clipPath20">
      <path
         d="M 0,660 H 660 V 0 H 0 Z"
         transform="translate(-358.09961,-134.1924)"
         id="path20" />
    </clipPath>
    <clipPath
       clipPathUnits="userSpaceOnUse"
       id="clipPath22">
      <path
         d="M 0,660 H 660 V 0 H 0 Z"
         transform="translate(-324.99611,-428.17291)"
         id="path22" />
    </clipPath>
    <clipPath
       clipPathUnits="userSpaceOnUse"
       id="clipPath24">
      <path
         d="M 0,660 H 660 V 0 H 0 Z"
         transform="translate(-111.6973,-551.32081)"
         id="path24" />
    </clipPath>
    <clipPath
       clipPathUnits="userSpaceOnUse"
       id="clipPath26">
      <path
         d="M 0,660 H 660 V 0 H 0 Z"
         transform="translate(-50.186501,-212.39361)"
         id="path26" />
    </clipPath>
    <clipPath
       clipPathUnits="userSpaceOnUse"
       id="clipPath28">
      <path
         d="M 0,660 H 660 V 0 H 0 Z"
         transform="translate(-324.99611,-428.17291)"
         id="path28" />
    </clipPath>
    <clipPath
       clipPathUnits="userSpaceOnUse"
       id="clipPath30">
      <path
         d="M 0,660 H 660 V 0 H 0 Z"
         transform="translate(-111.6973,-551.32081)"
         id="path30" />
    </clipPath>
    <clipPath
       clipPathUnits="userSpaceOnUse"
       id="clipPath32">
      <path
         d="M 0,660 H 660 V 0 H 0 Z"
         transform="translate(-111.6973,-656.56352)"
         id="path32" />
    </clipPath>
    <clipPath
       clipPathUnits="userSpaceOnUse"
       id="clipPath34">
      <path
         d="M 0,660 H 660 V 0 H 0 Z"
         transform="translate(-148.7734,-328.62501)"
         id="path34" />
    </clipPath>
  </defs>
  <sodipodi:namedview
     id="namedview1"
     pagecolor="#ffffff"
     bordercolor="#000000"
     borderopacity="0.25"
     inkscape:showpageshadow="2"
     inkscape:pageopacity="0.0"
     inkscape:pagecheckerboard="0"
     inkscape:deskcolor="#d1d1d1"
     inkscape:zoom="0.67272727"
     inkscape:cx="439.25676"
     inkscape:cy="440"
     inkscape:window-width="1440"
     inkscape:window-height="830"
     inkscape:window-x="-6"
     inkscape:window-y="-6"
     inkscape:window-maximized="1"
     inkscape:current-layer="g1">
    <inkscape:page
       x="0"
       y="0"
       inkscape:label="1"
       id="page1"
       width="880"
       height="880"
       margin="116.9544 62.740002 4.5826669 66.915337"
       bleed="0" />
  </sodipodi:namedview>
  <g
     id="g1"
     inkscape:groupmode="layer"
     inkscape:label="1">
    <g
       id="group-MC0">
      <path
         id="path2"
         d="m 0,0 v -48.117 l -64.465,-37.22 -30.147,1.528 32.509,127.666 55.961,-24.386 z"
         style="fill:#e6e6e6;fill-opacity:1;fill-rule:evenodd;stroke:none"
         transform="matrix(1.3333333,0,0,-1.3333333,477.46613,649.26307)" />
      <path
         id="path3"
         d="m 0,0 c 25.676,14.829 51.377,29.658 77.074,44.492 25.679,14.825 51.391,29.672 77.071,44.503 10.547,6.09 27.794,6.105 38.272,0.055 41.504,-23.96 83.001,-47.918 124.47,-71.863 41.458,-23.941 82.958,-47.88 124.429,-71.833 10.485,-6.055 10.378,-15.975 -0.187,-22.072 -25.699,-14.832 -51.393,-29.675 -77.053,-44.489 -25.676,-14.826 -51.357,-29.654 -77.053,-44.483 -10.548,-6.089 -27.704,-6.151 -38.176,-0.104 -41.47,23.944 -82.974,47.907 -124.449,71.849 C 82.914,-70 41.412,-46.017 -0.091,-22.066 -10.556,-16.025 -10.531,-6.083 0,0"
         style="fill:#e6e6e6;fill-opacity:1;fill-rule:evenodd;stroke:none"
         transform="matrix(1.3333333,0,0,-1.3333333,218.43747,526.75907)"
         clip-path="url(#clipPath4)" />
      <path
         id="path5"
         d="m 0,0 13.459,7.768 c 25.68,14.826 51.394,29.672 77.073,44.504 10.546,6.09 27.794,6.105 38.272,0.054 41.504,-23.959 83.001,-47.919 124.467,-71.863 20.304,-11.724 40.618,-23.449 60.932,-35.173 h 71.299 v -47.587 -0.13 -0.02 H 385.5 c -0.061,-3.98 -2.727,-7.961 -7.983,-10.995 -25.702,-14.831 -51.394,-29.674 -77.055,-44.489 -25.674,-14.826 -51.358,-29.653 -77.052,-44.482 -10.549,-6.09 -27.704,-6.151 -38.178,-0.105 -41.467,23.944 -82.973,47.907 -124.446,71.848 -41.485,23.946 -82.987,47.93 -124.491,71.881 -5.248,3.029 -7.857,7.04 -7.826,11.053 h -10e-4 V 0 Z"
         style="fill:#c2baad;fill-opacity:1;fill-rule:evenodd;stroke:none"
         transform="matrix(1.3333333,0,0,-1.3333333,271.90627,466.80213)"
         clip-path="url(#clipPath6)" />
      <path
         id="path7"
         d="M 0,0 -74.478,42.997 -62.103,91.593 -6.142,67.207 0,47.736 Z"
         style="fill:#ada598;fill-opacity:1;fill-rule:evenodd;stroke:none"
         transform="matrix(1.3333333,0,0,-1.3333333,477.46613,712.91147)"
         clip-path="url(#clipPath8)" />
      <path
         id="path9"
         d="m 0,0 c 25.674,14.829 51.377,29.661 77.072,44.493 25.679,14.826 51.393,29.671 77.072,44.503 10.546,6.09 27.794,6.104 38.272,0.055 41.504,-23.959 83.001,-47.918 124.468,-71.864 41.461,-23.94 82.962,-47.877 124.431,-71.83 10.483,-6.057 10.377,-15.978 -0.186,-22.075 -25.701,-14.832 -51.394,-29.674 -77.055,-44.489 -25.674,-14.826 -51.357,-29.651 -77.052,-44.48 -10.548,-6.092 -27.704,-6.153 -38.177,-0.107 -41.468,23.945 -82.974,47.908 -124.447,71.849 C 82.913,-69.999 41.411,-46.016 -0.092,-22.064 -10.558,-16.025 -10.532,-6.083 0,0"
         style="fill:#e3ded6;fill-opacity:1;fill-rule:evenodd;stroke:none"
         transform="matrix(1.3333333,0,0,-1.3333333,187.08987,452.11973)"
         clip-path="url(#clipPath10)" />
      <path
         id="path11"
         d="m 0,0 c 25.674,14.829 51.377,29.661 77.072,44.493 25.679,14.826 51.393,29.671 77.072,44.503 10.546,6.09 27.794,6.104 38.272,0.055 L 242.305,60.25 c 3.028,-19.573 4.63,-39.757 4.63,-60.403 0,-53.202 -10.518,-103.41 -29.153,-147.704 -31.128,17.973 -62.265,35.947 -93.384,53.912 C 82.913,-69.999 41.411,-46.016 -0.092,-22.064 -10.558,-16.025 -10.532,-6.083 0,0"
         style="fill:#d4cfc8;fill-opacity:1;fill-rule:evenodd;stroke:none"
         transform="matrix(1.3333333,0,0,-1.3333333,187.08987,452.11973)"
         clip-path="url(#clipPath12)" />
      <path
         id="path13"
         d="m 0,0 c 25.681,14.826 51.381,29.663 77.079,44.495 25.682,14.824 51.398,29.669 77.077,44.502 2.966,1.711 7.783,1.707 10.712,0.018 41.504,-23.963 83,-47.922 124.469,-71.87 41.462,-23.942 82.957,-47.893 124.412,-71.852 2.927,-1.691 2.934,-4.473 -0.028,-6.186 -25.696,-14.835 -51.39,-29.671 -77.048,-44.489 -25.674,-14.825 -51.351,-29.654 -77.047,-44.481 -2.963,-1.711 -7.78,-1.709 -10.706,-0.021 -41.469,23.942 -82.974,47.905 -124.447,71.844 C 82.989,-54.096 41.482,-30.123 -0.035,-6.181 -2.96,-4.491 -2.963,-1.709 0,0"
         style="fill:#18963a;fill-opacity:1;fill-rule:evenodd;stroke:none"
         transform="matrix(1.3333333,0,0,-1.3333333,205.3652,462.7044)"
         clip-path="url(#clipPath14)" />
      <path
         id="path15"
         d="m 0,0 c 25.681,14.826 51.381,29.663 77.079,44.495 25.682,14.824 51.398,29.669 77.077,44.502 2.966,1.711 7.783,1.707 10.712,0.018 l 66.013,-38.114 c 1.537,-14.107 2.347,-28.496 2.347,-43.116 0,-48.082 -8.602,-93.712 -24.01,-134.745 -28.249,16.307 -56.505,32.619 -84.745,48.92 C 82.989,-54.096 41.482,-30.123 -0.035,-6.181 -2.96,-4.491 -2.963,-1.709 0,0"
         style="fill:#138a33;fill-opacity:1;fill-rule:evenodd;stroke:none"
         transform="matrix(1.3333333,0,0,-1.3333333,205.3652,462.7044)"
         clip-path="url(#clipPath16)" />
      <path
         id="path17"
         d="m 0,0 c -38.898,-21.95 -77.799,-43.903 -116.697,-65.853 -5.076,-2.929 -11.773,-4.412 -18.475,-4.427 -6.692,-0.02 -13.356,1.417 -18.391,4.322 -52.844,30.002 -105.686,60.005 -158.531,90.008 52.404,-30.765 104.809,-61.527 157.216,-92.289 5.435,-3.142 12.577,-4.695 19.706,-4.676 7.14,0.018 14.308,1.615 19.787,4.777 C -67.306,-40.388 -33.983,-19.624 0,0 m -0.055,6.611 c -38.9,-21.951 -77.799,-43.901 -116.698,-65.854 -5.077,-2.929 -11.771,-4.409 -18.474,-4.427 -6.693,-0.018 -13.358,1.421 -18.391,4.323 -52.844,30.001 -105.688,60.005 -158.532,90.008 52.405,-30.765 104.81,-61.528 157.215,-92.29 5.435,-3.139 12.578,-4.693 19.708,-4.675 7.138,0.018 14.306,1.616 19.786,4.778 48.079,27.749 81.403,48.513 115.386,68.137 m -0.057,6.613 C -39.011,-8.729 -77.911,-30.679 -116.81,-52.63 c -5.077,-2.93 -11.771,-4.41 -18.473,-4.429 -6.694,-0.017 -13.358,1.42 -18.391,4.324 -52.846,30.004 -105.688,60.005 -158.532,90.008 52.404,-30.763 104.81,-61.526 157.214,-92.29 5.436,-3.14 12.578,-4.695 19.709,-4.676 7.137,0.02 14.306,1.618 19.786,4.78 48.078,27.747 81.402,48.515 115.385,68.137 m -0.055,6.611 -116.699,-65.853 c -5.075,-2.931 -11.772,-4.411 -18.475,-4.429 -6.69,-0.018 -13.356,1.42 -18.389,4.324 l -158.533,90.008 157.214,-92.291 c 5.439,-3.14 12.577,-4.695 19.708,-4.676 7.138,0.021 14.308,1.618 19.787,4.779 48.079,27.748 81.403,48.515 115.387,68.138 m 0.279,-33.057 -116.695,-65.857 c -5.078,-2.928 -11.774,-4.408 -18.477,-4.426 -6.691,-0.016 -13.354,1.42 -18.39,4.324 l -158.531,90.007 157.213,-92.29 c 5.438,-3.14 12.578,-4.693 19.708,-4.675 7.14,0.019 14.308,1.618 19.788,4.78 48.079,27.746 81.401,48.513 115.384,68.137 M 0.057,-6.61 c -33.983,-19.624 -67.306,-40.391 -115.385,-68.138 -5.48,-3.163 -12.649,-4.761 -19.788,-4.778 -7.129,-0.021 -14.27,1.533 -19.706,4.674 -52.406,30.763 -104.81,61.526 -157.216,92.291 52.843,-30.004 105.689,-60.006 158.531,-90.009 5.035,-2.905 11.699,-4.34 18.391,-4.322 6.702,0.016 13.399,1.499 18.475,4.426 38.899,21.952 77.799,43.905 116.698,65.856"
         style="fill:#968c7b;fill-opacity:1;fill-rule:evenodd;stroke:none"
         transform="matrix(1.3333333,0,0,-1.3333333,724.69013,619.70187)"
         clip-path="url(#clipPath18)" />
      <path
         id="path19"
         d="M 0,0 -72.662,41.253 -72.891,40.35 0,-2.438 Z M 0,13.16 -69.733,52.752 -69.976,51.796 0,10.72 Z m 0,6.579 -68.27,38.76 -0.249,-0.981 L 0,17.297 Z m 0,6.58 -66.805,37.93 -0.258,-1.006 L 0,23.875 Z m 0,6.58 -65.343,37.098 -0.262,-1.031 L 0,30.454 Z M 0,4.141 -71.433,46.073 -71.196,47.004 0,6.581 Z"
         style="fill:#857a66;fill-opacity:1;fill-rule:evenodd;stroke:none"
         transform="matrix(1.3333333,0,0,-1.3333333,477.46613,701.0768)"
         clip-path="url(#clipPath20)" />
      <path
         id="path21"
         d="m 0,0 -213.299,123.148 -61.511,-69.102 65.111,-205.375 148.19,-187.6 z"
         style="fill:#035e1b;fill-opacity:1;fill-rule:evenodd;stroke:none"
         transform="matrix(1.3333333,0,0,-1.3333333,433.32813,309.1028)"
         clip-path="url(#clipPath22)" />
      <path
         id="path23"
         d="M 0,0 V -249.665 L -61.511,-69.102 Z"
         style="fill:#034514;fill-opacity:1;fill-rule:evenodd;stroke:none"
         transform="matrix(1.3333333,0,0,-1.3333333,148.92973,144.9056)"
         clip-path="url(#clipPath24)" />
      <path
         id="path25"
         d="m 0,0 v 269.826 l 45.359,-26.188 c -0.439,-9.142 0.596,-19.123 3.3,-29.576 11.348,-43.88 47.74,-79.454 81.281,-79.454 21.343,0 36.385,14.407 41.582,36.19 l 41.779,-24.121 v -269.826 z"
         style="fill:#18963a;fill-opacity:1;fill-rule:evenodd;stroke:none"
         transform="matrix(1.3333333,0,0,-1.3333333,66.915333,596.80853)"
         clip-path="url(#clipPath26)" />
      <path
         id="path27"
         d="m 0,0 v -303.413 l -61.509,-35.516 v 269.826 z"
         style="fill:#087826;fill-opacity:1;fill-rule:evenodd;stroke:none"
         transform="matrix(1.3333333,0,0,-1.3333333,433.32813,309.1028)"
         clip-path="url(#clipPath28)" />
      <path
         id="path29"
         d="M 0,0 V 105.243 C 86.194,55.477 150.146,18.554 213.299,-17.907 v -105.241 z"
         style="fill:#18963a;fill-opacity:1;fill-rule:evenodd;stroke:none"
         transform="matrix(1.3333333,0,0,-1.3333333,148.92973,144.9056)"
         clip-path="url(#clipPath30)" />
      <path
         id="path31"
         d="M 0,0 213.299,-123.149 C 49.831,-112.329 -85.085,-10.82 0,0"
         style="fill:#38bd5c;fill-opacity:1;fill-rule:evenodd;stroke:none"
         transform="matrix(1.3333333,0,0,-1.3333333,148.92973,4.582)"
         clip-path="url(#clipPath32)" />
      <path
         id="path33"
         d="m 0,0 c 40.656,-15.555 73.613,-57.614 73.613,-93.941 0,-36.33 -32.957,-53.167 -73.613,-37.613 -40.655,15.557 -73.613,57.614 -73.613,93.943 C -73.613,-1.283 -40.655,15.555 0,0"
         style="fill:#7af09a;fill-opacity:1;fill-rule:evenodd;stroke:none"
         transform="matrix(1.3333333,0,0,-1.3333333,198.36453,441.83333)"
         clip-path="url(#clipPath34)" />
    </g>
  </g>
</svg>
